<svg xmlns="http://www.w3.org/2000/svg" xmlns:ev="http://www.w3.org/2001/xml-events" xmlns:xlink="http://www.w3.org/1999/xlink" width="690" height="540" class="st10" color-interpolation-filters="sRGB" viewBox="0 0 517.5 405" xml:space="preserve"><title>SYS/BIOS Overview</title><style type="text/css">.st1{fill:#9cf;stroke:#000;stroke-linecap:round;stroke-linejoin:round;stroke-width:.72}.st2{fill:#000;font-family:Arial;font-size:.75em}.st3,.st4{fill:none;stroke-linecap:round;stroke-linejoin:round}.st3{stroke:#000;stroke-dasharray:1.2,2.4;stroke-width:1.2}.st4{stroke:none;stroke-width:.72}.st5{fill:#000;font-family:Arial;font-size:1.00001em}.st6{fill:none;stroke:#789440;stroke-dasharray:7,5,0,5;stroke-linecap:round;stroke-linejoin:round;stroke-width:1}.st7{fill:#000;font-family:Arial;font-size:.666664em;font-style:italic;opacity:.196078}.st8{stroke:#000;stroke-dasharray:5.04,3.6;stroke-linecap:round;stroke-linejoin:round;stroke-width:.72}.st9{fill:#000;font-family:Arial;font-size:.666664em}.st10{fill:none;fill-rule:evenodd;font-size:12px;overflow:visible;stroke-linecap:square;stroke-miterlimit:3}</style><g><title>Overview</title><g id="shape2-1" transform="translate(180,-273.528)"><title>Sheet.2</title><desc>Task</desc><rect width="72" height="36" x="0" y="369" class="st1"/><text x="26.25" y="389.7" class="st2">Task</text></g><g id="shape1-4" transform="translate(144,-261)"><title>Sheet.1</title><path d="M0 405 L351 405 L351 288.06 L0 288.06 L0 405 Z" class="st3"/></g><g id="shape5-6" transform="translate(288,-273.528)"><title>Sheet.5</title><desc>Swi</desc><rect width="72" height="36" x="0" y="369" class="st1"/><text x="28.75" y="389.7" class="st2">Swi</text></g><g id="shape8-9" transform="translate(180,-329.469)"><title>Sheet.8</title><desc>Idle</desc><rect width="72" height="36" x="0" y="369" class="st1"/><text x="28.74" y="389.7" class="st2">Idle</text></g><g id="shape9-12" transform="translate(288,-329.469)"><title>Sheet.9</title><desc>Clock</desc><rect width="72" height="36" x="0" y="369" class="st1"/><text x="24.75" y="389.7" class="st2">Clock</text></g><g id="shape10-15" transform="translate(396,-329.468)"><title>Sheet.10</title><desc>Timer</desc><rect width="72" height="36" x="0" y="369" class="st1"/><text x="24.5" y="389.7" class="st2">Timer</text></g><g id="shape11-18" display="none" transform="translate(144,-375.688)"><title>Label.11</title><desc>Threads</desc><rect width="90" height="18" x="0" y="387" class="st4"/><text x="0" y="397.8" class="st5">Threads</text></g><g id="shape12-21" display="none" transform="translate(288,-273.528)"><title>Hot Spot.12</title><desc>Hot Spot</desc><path d="M0 405 L72 405 L72 369 L0 369 L0 405 Z" class="st6"/><text x="20.44" y="389.4" class="st7">Hot Spot</text></g><g id="shape14-24" transform="translate(144,-168.75)"><title>Sheet.14</title><path d="M0 405 L351 405 L351 342 L0 342 L0 405 Z" class="st3"/></g><g id="shape17-26" transform="translate(288,-182.25)"><title>Sheet.17</title><desc>Event</desc><rect width="72" height="36" x="0" y="369" class="st1"/><text x="24.49" y="389.7" class="st2">Event</text></g><g id="shape18-29" transform="translate(180,-182.25)"><title>Sheet.18</title><desc>Semaphore</desc><rect width="72" height="36" x="0" y="369" class="st1"/><text x="12.74" y="389.7" class="st2">Semaphore</text></g><g id="shape22-32" transform="translate(396,-182.25)"><title>Sheet.22</title><desc>Mailbox</desc><rect width="72" height="36" x="0" y="369" class="st1"/><text x="20.49" y="389.7" class="st2">Mailbox</text></g><g id="shape23-35" display="none" transform="translate(144,-229.252)"><title>Label.23</title><desc>Synchronization</desc><rect width="135" height="18" x="0" y="387" class="st4"/><text x="0" y="397.8" class="st5">Synchronization</text></g><g id="shape13-38" display="none" transform="translate(180,-273.528)"><title>Hot Spot.13</title><path d="M0 405 L72 405 L72 369 L0 369 L0 405 Z" class="st6"/></g><g id="shape20-40" display="none" transform="translate(396,-329.472)"><title>Hot Spot.20</title><desc>Hot Spot</desc><path d="M0 405 L72 405 L72 369 L0 369 L0 405 Z" class="st6"/><text x="20.44" y="389.4" class="st7">Hot Spot</text></g><g id="shape21-43" display="none" transform="translate(288,-329.469)"><title>Hot Spot.21</title><desc>Hot Spot</desc><path d="M0 405 L72 405 L72 369 L0 369 L0 405 Z" class="st6"/><text x="20.44" y="389.4" class="st7">Hot Spot</text></g><g id="shape24-46" display="none" transform="translate(180,-329.469)"><title>Hot Spot.24</title><desc>Hot Spot</desc><path d="M0 405 L72 405 L72 369 L0 369 L0 405 Z" class="st6"/><text x="20.44" y="389.4" class="st7">Hot Spot</text></g><g id="shape25-49" display="none" transform="translate(288,-182.25)"><title>Hot Spot.25</title><desc>Hot Spot</desc><path d="M0 405 L72 405 L72 369 L0 369 L0 405 Z" class="st6"/><text x="20.44" y="389.4" class="st7">Hot Spot</text></g><g id="shape26-52" display="none" transform="translate(396,-182.25)"><title>Hot Spot.26</title><desc>Hot Spot</desc><path d="M0 405 L72 405 L72 369 L0 369 L0 405 Z" class="st6"/><text x="20.44" y="389.4" class="st7">Hot Spot</text></g><g id="shape16-55" transform="translate(396,-273.528)"><title>Sheet.16</title><desc>Hwi</desc><rect width="72" height="36" x="0" y="369" class="st1"/><text x="28.5" y="389.7" class="st2">Hwi</text></g><g id="shape27-58" transform="translate(45,-288)"><title>Sheet.27</title><desc>BIOS</desc><rect width="63" height="63" x="0" y="342" class="st1"/><text x="20.75" y="376.2" class="st2">BIOS</text></g><g id="shape28-61" display="none" transform="translate(45,-288)"><title>Hot Spot.28</title><desc>Hot Spot</desc><path d="M0 405 L63 405 L63 342 L0 342 L0 405 Z" class="st6"/><text x="15.94" y="375.9" class="st7">Hot Spot</text></g><g id="shape49-64" transform="translate(18,-168.75)"><title>Sheet.49</title><path d="M0 405 L108 405 L108 342 L0 342 L0 405 Z" class="st3"/></g><g id="shape50-66" display="none" transform="translate(18,-137.452)"><title>Label.50</title><desc>Diagnostics</desc><rect width="99" height="18" x="0" y="387" class="st4"/><text x="0" y="397.8" class="st5">Diagnostics</text></g><g id="shape51-69" transform="translate(144,-22.5)"><title>Sheet.51</title><path d="M0 405 L351 405 L351 288 L0 288 L0 405 Z" class="st3"/></g><g id="shape52-71" display="none" transform="translate(144,-137.452)"><title>Label.52</title><desc>Memory Mangement</desc><rect width="135" height="18" x="0" y="387" class="st4"/><text x="0" y="397.8" class="st5">Memory Mangement</text></g><g id="shape53-74" display="none" transform="translate(234,-94.5)"><title>Hot Spot.53</title><desc>Hot Spot</desc><path d="M0 405 L72 405 L72 369 L0 369 L0 405 Z" class="st6"/><text x="20.44" y="389.4" class="st7">Hot Spot</text></g><g id="shape54-77" transform="translate(234,-94.5)"><title>Sheet.54</title><desc>Memory</desc><rect width="72" height="35.555" x="0" y="369.445" class="st1"/><text x="19.75" y="389.92" class="st2">Memory</text></g><g id="shape55-80" display="none" transform="translate(180,-31.5)"><title>Hot Spot.55</title><desc>Hot Spot</desc><path d="M0 405 L72 405 L72 369 L0 369 L0 405 Z" class="st6"/><text x="20.44" y="389.4" class="st7">Hot Spot</text></g><g id="shape56-83" transform="translate(290.25,-31.5)"><title>Sheet.56</title><desc>HeapBuf</desc><rect width="72" height="35.555" x="0" y="369.445" class="st1"/><text x="18.49" y="389.92" class="st2">HeapBuf</text></g><g id="shape57-86" transform="translate(180,-31.5)"><title>Sheet.57</title><desc>HeapMem</desc><rect width="72" height="35.555" x="0" y="369.445" class="st1"/><text x="15.24" y="389.92" class="st2">HeapMem</text></g><g id="shape58-89" transform="translate(396,-31.5)"><title>Sheet.58</title><desc>HeapMultiBuf</desc><rect width="72" height="35.555" x="0" y="369.445" class="st1"/><text x="8.99" y="389.92" class="st2">HeapMultiBuf</text></g><g id="shape59-92" display="none" transform="translate(288,-31.5)"><title>Hot Spot.59</title><desc>Hot Spot</desc><path d="M0 405 L72 405 L72 369 L0 369 L0 405 Z" class="st6"/><text x="20.44" y="389.4" class="st7">Hot Spot</text></g><g id="shape60-95" display="none" transform="translate(396,-31.5)"><title>Hot Spot.60</title><desc>Hot Spot</desc><path d="M0 405 L72 405 L72 369 L0 369 L0 405 Z" class="st6"/><text x="20.44" y="389.4" class="st7">Hot Spot</text></g><g id="shape61-98" transform="translate(180,-81)"><title>Sheet.61</title><path d="M0 405 L288 405" class="st8"/></g><g id="shape62-101" transform="translate(36,-204.75)"><title>Sheet.62</title><desc>Boot</desc><rect width="72" height="18" x="0" y="387" class="st1"/><text x="26.74" y="398.7" class="st2">Boot</text></g><g id="shape63-104" transform="translate(18,-22.5)"><title>Sheet.63</title><path d="M0 405 L108 405 L108 288 L0 288 L0 405 Z" class="st3"/></g><g id="shape64-106" display="none" transform="translate(18,-229.252)"><title>Label.64</title><desc>Startup</desc><rect width="90" height="18" x="0" y="387" class="st4"/><text x="0" y="397.8" class="st5">Startup</text></g><g id="shape65-109" transform="translate(36,-176.932)"><title>Sheet.65</title><desc>Startup</desc><rect width="72" height="18" x="0" y="387" class="st1"/><text x="21.49" y="398.7" class="st2">Startup</text></g><g id="shape66-112" transform="translate(36,-104.529)"><title>Sheet.66</title><desc>Error Handling</desc><rect width="72" height="25.2" x="0" y="379.8" class="st1"/><text x="6.99" y="395.1" class="st2">Error Handling</text></g><g id="shape67-115" display="none" transform="translate(36,-103.5)"><title>Hot Spot.67</title><desc>Hot Spot</desc><path d="M0 405 L72 405 L72 379.8 L0 379.8 L0 405 Z" class="st6"/><text x="20.44" y="394.8" class="st7">Hot Spot</text></g><g id="shape68-118" transform="translate(36,-68.4)"><title>Sheet.68</title><desc>CPU Load</desc><rect width="72" height="25.2" x="0" y="379.8" class="st1"/><text x="17.54" y="394.8" class="st9">CPU Load</text></g><g id="shape69-121" display="none" transform="translate(36,-67.5)"><title>Hot Spot.69</title><desc>Hot Spot</desc><path d="M0 405 L72 405 L72 379.8 L0 379.8 L0 405 Z" class="st6"/><text x="20.44" y="394.8" class="st7">Hot Spot</text></g><g id="shape29-124" display="none" transform="translate(36,-177.75)"><title>Hot Spot.29</title><desc>Hot Spot</desc><path d="M0 405 L72 405 L72 388.64 L0 388.64 L0 405 Z" class="st6"/><text x="20.44" y="399.22" class="st7">Hot Spot</text></g><g id="shape74-127" display="none" transform="translate(36,-205.568)"><title>Hot Spot.74</title><desc>Hot Spot</desc><path d="M0 405 L72 405 L72 388.64 L0 388.64 L0 405 Z" class="st6"/><text x="20.44" y="399.22" class="st7">Hot Spot</text></g><g id="shape77-130" display="none" transform="translate(396,-273.528)"><title>Hot Spot.77</title><desc>Hot Spot</desc><path d="M0 405 L72 405 L72 369 L0 369 L0 405 Z" class="st6"/><text x="20.44" y="389.4" class="st7">Hot Spot</text></g><g id="shape78-133" display="none" transform="translate(180,-182.25)"><title>Hot Spot.78</title><desc>Hot Spot</desc><path d="M0 405 L72 405 L72 369 L0 369 L0 405 Z" class="st6"/><text x="20.44" y="389.4" class="st7">Hot Spot</text></g><g id="shape79-136" transform="translate(36,-32.4)"><title>Sheet.79</title><desc>Timestamp</desc><rect width="72" height="25.2" x="0" y="379.8" class="st1"/><text x="13.75" y="395.1" class="st2">Timestamp</text></g><g id="shape80-139" display="none" transform="translate(36,-32.4)"><title>Hot Spot.80</title><desc>Hot Spot</desc><path d="M0 405 L72 405 L72 379.8 L0 379.8 L0 405 Z" class="st6"/><text x="20.44" y="394.8" class="st7">Hot Spot</text></g><g id="shape6-142" display="none" transform="translate(342,-94.5)"><title>Hot Spot.6</title><desc>Hot Spot</desc><path d="M0 405 L72 405 L72 369 L0 369 L0 405 Z" class="st6"/><text x="20.44" y="389.4" class="st7">Hot Spot</text></g><g id="shape15-145" transform="translate(342,-94.5)"><title>Sheet.15</title><desc>Cache</desc><rect width="72" height="35.555" x="0" y="369.445" class="st1"/><text x="22.99" y="389.92" class="st2">Cache</text></g></g></svg>